<svg width="1096.94" height="719.079" viewBox="0 14 1096.94 719.079" fill="none" xmlns="http://www.w3.org/2000/svg"><style>
g[mask="url(#mask1-qc)"] &gt; path:nth-child(n+5):nth-child(-n+12) { stroke: #343539; }
#qc-foreground:target ~ g[clip-path="url(#clip0-qc)"] g[mask="url(#mask1-qc)"] &gt; path:nth-child(n+5):nth-child(-n+12) { stroke: white; }

g[mask="url(#mask0-qc)"] &gt; path:nth-child(n+43):nth-child(-n+66),
g[mask="url(#mask0-qc)"] &gt; path:nth-child(n+71):nth-child(-n+86) { display: none; }

g[mask="url(#mask0-qc)"] &gt; path:nth-child(6),
g[mask="url(#mask0-qc)"] &gt; path:nth-child(7),
g[mask="url(#mask0-qc)"] &gt; path:nth-child(8),
g[mask="url(#mask0-qc)"] &gt; path:nth-child(15),
g[mask="url(#mask0-qc)"] &gt; path:nth-child(21),
g[mask="url(#mask0-qc)"] &gt; path:nth-child(22),
g[mask="url(#mask0-qc)"] &gt; path:nth-child(24),
g[mask="url(#mask0-qc)"] &gt; path:nth-child(25) { display: none; }
</style><g id="qc-foreground" /><rect width="1202" height="2292" fill="white" /><g clip-path="url(#clip0-qc)"><mask id="mask0-qc" style="mask-type:luminance" maskUnits="userSpaceOnUse" x="0" y="14" width="1097" height="720"><path d="M-1.63457e-05 14H1096.94V733.079H-1.63457e-05V14Z" fill="white" /></mask><g mask="url(#mask0-qc)"><path d="M52.4276 226.142C52.4263 260.061 79.9236 287.558 113.842 287.558C147.761 287.558 175.257 260.061 175.257 226.142C175.257 192.224 147.761 164.728 113.842 164.728C79.9236 164.728 52.4263 192.224 52.4263 226.142" stroke="black" stroke-width="0.945333" stroke-linecap="round" stroke-linejoin="round" /><path d="M100.615 226.142C100.615 233.449 106.536 239.37 113.841 239.37C121.148 239.37 127.069 233.449 127.069 226.142C127.069 218.837 121.148 212.914 113.841 212.914C106.536 212.914 100.615 218.837 100.615 226.142Z" stroke="black" stroke-width="0.945333" stroke-linecap="round" stroke-linejoin="round" /><path d="M105.126 226.143H122.554" stroke="black" stroke-width="0.666667" stroke-linecap="round" stroke-linejoin="round" /><path d="M113.841 217.429V234.857" stroke="black" stroke-width="0.666667" stroke-linecap="round" stroke-linejoin="round" /><path d="M1058.69 732.583H38.2552" stroke="black" stroke-width="0.945333" stroke-linecap="round" stroke-linejoin="round" /><path d="M1058.69 732.583V729.068" stroke="black" stroke-width="0.68" stroke-linecap="round" stroke-linejoin="round" /><path d="M38.2548 729.067V732.582" stroke="black" stroke-width="0.68" stroke-linecap="round" stroke-linejoin="round" /><path d="M4.99558 695.808L0.459584 694.787" stroke="black" stroke-width="0.945333" stroke-linecap="round" stroke-linejoin="round" /><path d="M255.796 84.1888H252.773" stroke="black" stroke-width="0.68" stroke-linecap="round" stroke-linejoin="round" /><path d="M255.796 84.1888V405.892" stroke="black" stroke-width="0.945333" stroke-linecap="round" stroke-linejoin="round" /><path d="M844.172 84.1888V405.892" stroke="black" stroke-width="0.945333" stroke-linecap="round" stroke-linejoin="round" /><path d="M252.773 405.891V84.1887" stroke="black" stroke-width="0.945333" stroke-linecap="round" stroke-linejoin="round" /><path d="M255.796 405.891H252.773" stroke="black" stroke-width="0.68" stroke-linecap="round" stroke-linejoin="round" /><path d="M838.125 81.1649H258.82" stroke="black" stroke-width="0.945333" stroke-linecap="round" stroke-linejoin="round" /><path d="M1096.49 52.2913H1091.95" stroke="black" stroke-width="0.68" stroke-linecap="round" stroke-linejoin="round" /><path d="M1096.48 52.2913V451.853" stroke="black" stroke-width="0.945333" stroke-linecap="round" stroke-linejoin="round" /><path d="M258.82 408.914V411.938" stroke="black" stroke-width="0.68" stroke-linecap="round" stroke-linejoin="round" /><path d="M1091.95 451.853V52.2916" stroke="black" stroke-width="0.945333" stroke-linecap="round" stroke-linejoin="round" /><path d="M1058.69 19.0321H38.2552" stroke="black" stroke-width="0.945333" stroke-linecap="round" stroke-linejoin="round" /><path d="M0.459584 451.853V52.2916" stroke="black" stroke-width="0.945333" stroke-linecap="round" stroke-linejoin="round" /><path d="M38.2548 19.0321V14.4961" stroke="black" stroke-width="0.68" stroke-linecap="round" stroke-linejoin="round" /><path d="M1096.49 694.787L1091.95 695.809" stroke="black" stroke-width="0.945333" stroke-linecap="round" stroke-linejoin="round" /><path d="M841.149 405.891V84.1887" stroke="black" stroke-width="0.945333" stroke-linecap="round" stroke-linejoin="round" /><path d="M4.99558 52.2913H0.459584" stroke="black" stroke-width="0.68" stroke-linecap="round" stroke-linejoin="round" /><path d="M1058.69 14.4962V19.0322" stroke="black" stroke-width="0.68" stroke-linecap="round" stroke-linejoin="round" /><path d="M838.125 411.938V408.914" stroke="black" stroke-width="0.68" stroke-linecap="round" stroke-linejoin="round" /><path d="M38.2548 14.4962H1058.69" stroke="black" stroke-width="0.945333" stroke-linecap="round" stroke-linejoin="round" /><path d="M844.172 84.1888H841.149" stroke="black" stroke-width="0.68" stroke-linecap="round" stroke-linejoin="round" /><path d="M258.82 81.1649V78.1423" stroke="black" stroke-width="0.68" stroke-linecap="round" stroke-linejoin="round" /><path d="M0.459584 694.787V467.837" stroke="black" stroke-width="0.945333" stroke-linecap="round" stroke-linejoin="round" /><path d="M4.99558 468.856V695.808" stroke="black" stroke-width="0.945333" stroke-linecap="round" stroke-linejoin="round" /><path d="M4.99558 52.2913V451.853" stroke="black" stroke-width="0.945333" stroke-linecap="round" stroke-linejoin="round" /><path d="M258.82 78.1424H838.125" stroke="black" stroke-width="0.945333" stroke-linecap="round" stroke-linejoin="round" /><path d="M838.125 411.938H258.82" stroke="black" stroke-width="0.945333" stroke-linecap="round" stroke-linejoin="round" /><path d="M38.2548 729.067H1058.69" stroke="black" stroke-width="0.945333" stroke-linecap="round" stroke-linejoin="round" /><path d="M838.125 78.1424V81.1651" stroke="black" stroke-width="0.68" stroke-linecap="round" stroke-linejoin="round" /><path d="M1096.48 467.837V694.788" stroke="black" stroke-width="0.945333" stroke-linecap="round" stroke-linejoin="round" /><path d="M1091.95 695.808V468.856" stroke="black" stroke-width="0.945333" stroke-linecap="round" stroke-linejoin="round" /><path d="M258.82 408.914H838.125" stroke="black" stroke-width="0.945333" stroke-linecap="round" stroke-linejoin="round" /><path d="M844.172 405.891H841.149" stroke="black" stroke-width="0.68" stroke-linecap="round" stroke-linejoin="round" /><path d="M38.2548 732.583C17.3815 732.581 0.460116 715.661 0.460116 694.788" stroke="black" stroke-width="0.945333" stroke-linecap="round" stroke-linejoin="round" /><path d="M1096.49 694.787C1096.49 715.661 1079.56 732.582 1058.69 732.582" stroke="black" stroke-width="0.945333" stroke-linecap="round" stroke-linejoin="round" /><path d="M314.652 465.962C314.625 465.914 314.61 465.896 314.597 465.88" stroke="black" stroke-width="0.945333" stroke-linecap="round" stroke-linejoin="round" /><path d="M314.597 465.88C313.936 465.08 313.275 464.279 312.459 463.631" stroke="black" stroke-width="0.945333" stroke-linecap="round" stroke-linejoin="round" /><path d="M312.458 463.63C311.626 462.968 310.633 462.464 309.597 462.13" stroke="black" stroke-width="0.945333" stroke-linecap="round" stroke-linejoin="round" /><path d="M309.596 462.13C308.558 461.797 307.476 461.633 306.394 461.654" stroke="black" stroke-width="0.945333" stroke-linecap="round" stroke-linejoin="round" /><path d="M306.394 461.655C305.315 461.676 304.237 461.883 303.229 462.255" stroke="black" stroke-width="0.945333" stroke-linecap="round" stroke-linejoin="round" /><path d="M303.228 462.255C302.22 462.628 301.281 463.165 300.438 463.856" stroke="black" stroke-width="0.945333" stroke-linecap="round" stroke-linejoin="round" /><path d="M300.439 463.856C299.597 464.544 298.855 465.385 298.331 466.275" stroke="black" stroke-width="0.945333" stroke-linecap="round" stroke-linejoin="round" /><path d="M298.33 466.275C297.839 467.107 297.539 467.982 297.238 468.857" stroke="black" stroke-width="0.945333" stroke-linecap="round" stroke-linejoin="round" /><path d="M556.533 465.962C556.506 465.914 556.492 465.896 556.478 465.88" stroke="black" stroke-width="0.945333" stroke-linecap="round" stroke-linejoin="round" /><path d="M556.479 465.88C555.816 465.08 555.155 464.279 554.34 463.631" stroke="black" stroke-width="0.945333" stroke-linecap="round" stroke-linejoin="round" /><path d="M554.34 463.63C553.508 462.968 552.514 462.464 551.477 462.13" stroke="black" stroke-width="0.945333" stroke-linecap="round" stroke-linejoin="round" /><path d="M551.477 462.13C550.44 461.797 549.357 461.633 548.276 461.654" stroke="black" stroke-width="0.945333" stroke-linecap="round" stroke-linejoin="round" /><path d="M548.276 461.655C547.197 461.676 546.118 461.883 545.109 462.255" stroke="black" stroke-width="0.945333" stroke-linecap="round" stroke-linejoin="round" /><path d="M545.109 462.255C544.101 462.628 543.161 463.165 542.32 463.856" stroke="black" stroke-width="0.945333" stroke-linecap="round" stroke-linejoin="round" /><path d="M542.32 463.856C541.479 464.544 540.736 465.385 540.211 466.275" stroke="black" stroke-width="0.945333" stroke-linecap="round" stroke-linejoin="round" /><path d="M540.212 466.275C539.721 467.107 539.42 467.982 539.12 468.857" stroke="black" stroke-width="0.945333" stroke-linecap="round" stroke-linejoin="round" /><path d="M1040.3 465.962C1040.27 465.914 1040.25 465.896 1040.24 465.88" stroke="black" stroke-width="0.945333" stroke-linecap="round" stroke-linejoin="round" /><path d="M1040.24 465.88C1039.58 465.08 1038.92 464.279 1038.1 463.631" stroke="black" stroke-width="0.945333" stroke-linecap="round" stroke-linejoin="round" /><path d="M1038.1 463.63C1037.27 462.968 1036.28 462.464 1035.24 462.13" stroke="black" stroke-width="0.945333" stroke-linecap="round" stroke-linejoin="round" /><path d="M1035.24 462.13C1034.2 461.797 1033.12 461.633 1032.04 461.654" stroke="black" stroke-width="0.945333" stroke-linecap="round" stroke-linejoin="round" /><path d="M1032.04 461.655C1030.96 461.676 1029.88 461.883 1028.87 462.255" stroke="black" stroke-width="0.945333" stroke-linecap="round" stroke-linejoin="round" /><path d="M1028.87 462.255C1027.86 462.628 1026.92 463.165 1026.08 463.856" stroke="black" stroke-width="0.945333" stroke-linecap="round" stroke-linejoin="round" /><path d="M1026.08 463.856C1025.24 464.544 1024.5 465.385 1023.97 466.275" stroke="black" stroke-width="0.945333" stroke-linecap="round" stroke-linejoin="round" /><path d="M1023.97 466.275C1023.48 467.107 1023.18 467.982 1022.88 468.857" stroke="black" stroke-width="0.945333" stroke-linecap="round" stroke-linejoin="round" /><path d="M1058.69 729.067C1060.9 728.909 1063.11 728.751 1065.18 728.435" stroke="black" stroke-width="0.945333" stroke-linecap="round" stroke-linejoin="round" /><path d="M1065.17 728.435C1067.24 728.119 1069.17 727.643 1071.42 726.535" stroke="black" stroke-width="0.945333" stroke-linecap="round" stroke-linejoin="round" /><path d="M1071.42 726.534C1074.59 724.972 1078.4 722.149 1082.21 719.325" stroke="black" stroke-width="0.945333" stroke-linecap="round" stroke-linejoin="round" /><path d="M1082.21 719.325C1088.44 713.088 1091.95 704.629 1091.95 695.808" stroke="black" stroke-width="0.945333" stroke-linecap="round" stroke-linejoin="round" /><path d="M798.415 465.962C798.387 465.914 798.373 465.896 798.359 465.88" stroke="black" stroke-width="0.945333" stroke-linecap="round" stroke-linejoin="round" /><path d="M798.359 465.88C797.697 465.08 797.036 464.279 796.221 463.631" stroke="black" stroke-width="0.945333" stroke-linecap="round" stroke-linejoin="round" /><path d="M796.221 463.63C795.389 462.968 794.396 462.464 793.359 462.13" stroke="black" stroke-width="0.945333" stroke-linecap="round" stroke-linejoin="round" /><path d="M793.359 462.13C792.32 461.797 791.238 461.633 790.156 461.654" stroke="black" stroke-width="0.945333" stroke-linecap="round" stroke-linejoin="round" /><path d="M790.157 461.655C789.077 461.676 788 461.883 786.991 462.255" stroke="black" stroke-width="0.945333" stroke-linecap="round" stroke-linejoin="round" /><path d="M786.991 462.255C785.983 462.628 785.043 463.165 784.201 463.856" stroke="black" stroke-width="0.945333" stroke-linecap="round" stroke-linejoin="round" /><path d="M784.202 463.856C783.361 464.544 782.618 465.385 782.093 466.275" stroke="black" stroke-width="0.945333" stroke-linecap="round" stroke-linejoin="round" /><path d="M782.093 466.275C781.603 467.107 781.301 467.982 781.001 468.857" stroke="black" stroke-width="0.945333" stroke-linecap="round" stroke-linejoin="round" /><path d="M72.7716 465.962C72.7436 465.914 72.7303 465.896 72.7156 465.88" stroke="black" stroke-width="0.945333" stroke-linecap="round" stroke-linejoin="round" /><path d="M72.7156 465.88C72.0543 465.08 71.3929 464.279 70.5769 463.631" stroke="black" stroke-width="0.945333" stroke-linecap="round" stroke-linejoin="round" /><path d="M70.578 463.63C69.7447 462.968 68.7527 462.464 67.7153 462.13" stroke="black" stroke-width="0.945333" stroke-linecap="round" stroke-linejoin="round" /><path d="M67.7156 462.13C66.6769 461.797 65.5942 461.633 64.5129 461.654" stroke="black" stroke-width="0.945333" stroke-linecap="round" stroke-linejoin="round" /><path d="M64.5124 461.655C63.4337 461.676 62.3564 461.883 61.3471 462.255" stroke="black" stroke-width="0.945333" stroke-linecap="round" stroke-linejoin="round" /><path d="M61.346 462.255C60.338 462.628 59.3993 463.165 58.558 463.856" stroke="black" stroke-width="0.945333" stroke-linecap="round" stroke-linejoin="round" /><path d="M58.5572 463.856C57.7172 464.544 56.9745 465.385 56.4492 466.275" stroke="black" stroke-width="0.945333" stroke-linecap="round" stroke-linejoin="round" /><path d="M56.4484 466.275C55.9577 467.107 55.6577 467.982 55.3577 468.857" stroke="black" stroke-width="0.945333" stroke-linecap="round" stroke-linejoin="round" /><path d="M4.99558 695.808C4.99558 704.628 8.49958 713.088 14.7369 719.325" stroke="black" stroke-width="0.945333" stroke-linecap="round" stroke-linejoin="round" /><path d="M14.7364 719.325C18.5471 722.149 22.3564 724.972 25.5271 726.536" stroke="black" stroke-width="0.945333" stroke-linecap="round" stroke-linejoin="round" /><path d="M25.5268 726.534C27.7748 727.644 29.7001 728.118 31.7681 728.436" stroke="black" stroke-width="0.945333" stroke-linecap="round" stroke-linejoin="round" /><path d="M31.7684 728.435C33.8351 728.751 36.0444 728.909 38.2537 729.067" stroke="black" stroke-width="0.945333" stroke-linecap="round" stroke-linejoin="round" /><path d="M0.459584 52.2913C0.459584 31.418 17.3809 14.4967 38.2543 14.4967" stroke="black" stroke-width="0.945333" stroke-linecap="round" stroke-linejoin="round" /><path d="M841.149 84.1888C841.149 82.5195 839.795 81.1648 838.125 81.1648" stroke="black" stroke-width="0.945333" stroke-linecap="round" stroke-linejoin="round" /><path d="M258.82 81.1649C257.15 81.1649 255.796 82.5196 255.796 84.1889" stroke="black" stroke-width="0.945333" stroke-linecap="round" stroke-linejoin="round" /><path d="M0.459584 467.837V451.853" stroke="black" stroke-width="0.945333" stroke-linecap="round" stroke-linejoin="round" /><path d="M4.99558 451.853V468.856" stroke="black" stroke-width="0.945333" stroke-linecap="round" stroke-linejoin="round" /><path d="M1058.69 14.4962C1079.56 14.4962 1096.48 31.4175 1096.48 52.2908" stroke="black" stroke-width="0.945333" stroke-linecap="round" stroke-linejoin="round" /><path d="M838.125 78.1424C841.465 78.1424 844.172 80.8491 844.172 84.1891" stroke="black" stroke-width="0.945333" stroke-linecap="round" stroke-linejoin="round" /><path d="M252.773 84.1888C252.773 80.8488 255.48 78.1422 258.82 78.1422" stroke="black" stroke-width="0.945333" stroke-linecap="round" stroke-linejoin="round" /><path d="M1096.48 451.853V467.837" stroke="black" stroke-width="0.945333" stroke-linecap="round" stroke-linejoin="round" /><path d="M1091.95 468.856V451.854" stroke="black" stroke-width="0.945333" stroke-linecap="round" stroke-linejoin="round" /><path d="M1091.95 52.2913C1091.95 33.922 1077.06 19.0327 1058.69 19.0327" stroke="black" stroke-width="0.945333" stroke-linecap="round" stroke-linejoin="round" /><path d="M255.796 405.891C255.796 407.561 257.15 408.914 258.82 408.914" stroke="black" stroke-width="0.945333" stroke-linecap="round" stroke-linejoin="round" /><path d="M844.172 405.891C844.172 409.23 841.465 411.938 838.125 411.938" stroke="black" stroke-width="0.945333" stroke-linecap="round" stroke-linejoin="round" /><path d="M258.82 411.938C255.48 411.938 252.773 409.231 252.773 405.891" stroke="black" stroke-width="0.945333" stroke-linecap="round" stroke-linejoin="round" /><path d="M838.125 408.914C839.795 408.915 841.149 407.56 841.149 405.891" stroke="black" stroke-width="0.945333" stroke-linecap="round" stroke-linejoin="round" /><path d="M38.2548 19.0321C19.8855 19.0321 4.99612 33.9227 4.99612 52.2907" stroke="black" stroke-width="0.945333" stroke-linecap="round" stroke-linejoin="round" /></g><mask id="mask1-qc" style="mask-type:luminance" maskUnits="userSpaceOnUse" x="0" y="14" width="1097" height="720"><path d="M-1.63457e-05 14H1096.94V733.079H-1.63457e-05V14Z" fill="white" /></mask><g mask="url(#mask1-qc)"><path d="M106.746 80.5655H121.413C126.384 80.5655 130.413 84.5948 130.413 89.5655V104.232C130.413 109.203 126.384 113.232 121.413 113.232H106.746C101.776 113.232 97.7463 109.203 97.7463 104.232V89.5655C97.7463 84.5948 101.776 80.5655 106.746 80.5655ZM121.413 79.8988H106.746C101.408 79.8988 97.0796 84.2268 97.0796 89.5655V104.232C97.0796 109.571 101.408 113.899 106.746 113.899H121.413C126.752 113.899 131.08 109.571 131.08 104.232V89.5655C131.08 84.2268 126.752 79.8988 121.413 79.8988Z" fill="#959595" /><path d="M106.746 80.5655H121.413C126.384 80.5655 130.413 84.5948 130.413 89.5655V104.232C130.413 109.203 126.384 113.232 121.413 113.232H106.746C101.776 113.232 97.7463 109.203 97.7463 104.232V89.5655C97.7463 84.5948 101.776 80.5655 106.746 80.5655ZM121.413 79.8988H106.746C101.408 79.8988 97.0796 84.2268 97.0796 89.5655V104.232C97.0796 109.571 101.408 113.899 106.746 113.899H121.413C126.752 113.899 131.08 109.571 131.08 104.232V89.5655C131.08 84.2268 126.752 79.8988 121.413 79.8988Z" stroke="#959595" stroke-width="0.266667" stroke-miterlimit="10" /><path d="M910.746 80.5655H1029.95C1032.71 80.5655 1034.95 82.8042 1034.95 85.5655V101.566C1034.95 104.327 1032.71 106.566 1029.95 106.566H910.746C907.985 106.566 905.746 104.327 905.746 101.566V85.5655C905.746 82.8042 907.985 80.5655 910.746 80.5655ZM1029.95 79.8988H910.746C907.617 79.8988 905.08 82.4362 905.08 85.5655V101.566C905.08 104.695 907.617 107.232 910.746 107.232H1029.95C1033.08 107.232 1035.61 104.695 1035.61 101.566V85.5655C1035.61 82.4362 1033.08 79.8988 1029.95 79.8988Z" fill="#959595" /><path d="M910.746 80.5655H1029.95C1032.71 80.5655 1034.95 82.8042 1034.95 85.5655V101.566C1034.95 104.327 1032.71 106.566 1029.95 106.566H910.746C907.985 106.566 905.746 104.327 905.746 101.566V85.5655C905.746 82.8042 907.985 80.5655 910.746 80.5655ZM1029.95 79.8988H910.746C907.617 79.8988 905.08 82.4362 905.08 85.5655V101.566C905.08 104.695 907.617 107.232 910.746 107.232H1029.95C1033.08 107.232 1035.61 104.695 1035.61 101.566V85.5655C1035.61 82.4362 1033.08 79.8988 1029.95 79.8988Z" stroke="#959595" stroke-width="0.266667" stroke-miterlimit="10" /><path d="M124.429 503.656H124.269L119.029 518.497H129.669L124.429 503.656ZM133.349 529.296L130.309 520.617H118.429L115.389 529.296H112.989L122.869 501.376H125.949L135.869 529.296H133.349Z" stroke="#959595" stroke-width="2.26667" /><path d="M357.534 527.176H366.414C368.094 527.176 369.374 526.716 370.254 525.796C371.134 524.875 371.574 523.683 371.574 522.216V520.736C371.574 519.296 371.134 518.116 370.254 517.196C369.374 516.276 368.094 515.815 366.414 515.815H357.534V527.176ZM357.534 513.696H365.814C367.334 513.696 368.494 513.291 369.294 512.482C370.094 511.671 370.494 510.628 370.494 509.354V507.839C370.494 506.564 370.094 505.522 369.294 504.711C368.494 503.902 367.334 503.496 365.814 503.496H357.534V513.696ZM355.134 501.375H366.054C368.241 501.375 369.954 501.995 371.194 503.232C372.434 504.47 373.054 506.194 373.054 508.403C373.054 509.36 372.927 510.199 372.674 510.918C372.421 511.636 372.094 512.235 371.694 512.714C371.294 513.194 370.834 513.579 370.314 513.871C369.794 514.164 369.281 514.364 368.774 514.471V514.631C369.414 514.711 370.054 514.906 370.694 515.211C371.334 515.519 371.907 515.947 372.414 516.494C372.921 517.042 373.334 517.723 373.654 518.538C373.974 519.354 374.134 520.308 374.134 521.403C374.134 522.551 373.967 523.607 373.634 524.568C373.301 525.531 372.821 526.366 372.194 527.072C371.567 527.78 370.821 528.327 369.954 528.715C369.087 529.103 368.119 529.296 367.054 529.296H355.134V501.375Z" stroke="#959595" stroke-width="2.26667" /><path d="M607.853 529.777C604.385 529.777 601.706 528.57 599.813 526.155C597.92 523.743 596.973 520.163 596.973 515.415C596.973 510.695 597.92 507.095 599.813 504.617C601.706 502.137 604.385 500.897 607.853 500.897C610.093 500.897 611.98 501.422 613.513 502.475C615.046 503.53 616.24 504.975 617.093 506.815L615.133 507.975C614.52 506.457 613.593 505.249 612.353 504.357C611.113 503.463 609.613 503.017 607.853 503.017C605.24 503.017 603.2 503.953 601.733 505.826C600.266 507.698 599.533 510.374 599.533 513.851V517.022C599.533 520.473 600.266 523.109 601.733 524.927C603.2 526.747 605.24 527.655 607.853 527.655C609.718 527.655 611.278 527.183 612.533 526.237C613.786 525.29 614.718 524.017 615.333 522.415L617.293 523.577C616.466 525.497 615.253 527.01 613.653 528.117C612.053 529.223 610.118 529.777 607.853 529.777Z" stroke="#959595" stroke-width="2.26667" /><path d="M847.887 527.176C850.634 527.176 852.767 526.29 854.287 524.516C855.807 522.743 856.567 520.296 856.567 517.176V513.496C856.567 510.375 855.807 507.93 854.287 506.155C852.767 504.383 850.634 503.496 847.887 503.496H841.367V527.176H847.887ZM838.968 501.375H847.847C851.447 501.375 854.227 502.536 856.187 504.856C858.147 507.176 859.127 510.67 859.127 515.336C859.127 520.003 858.147 523.496 856.187 525.815C854.227 528.136 851.447 529.296 847.847 529.296H838.968V501.375Z" stroke="#959595" stroke-width="2.26667" /><path d="M113.226 703.553V675.633H129.546V677.753H115.626V688.313H128.866V690.433H115.626V701.433H129.546V703.553H113.226Z" stroke="#959595" stroke-width="2.26667" /><path d="M355.135 703.553V675.633H371.095V677.753H357.535V688.313H370.175V690.433H357.535V703.553H355.135Z" stroke="#959595" stroke-width="2.26667" /><path d="M617.13 699.309H617.01C616.502 700.739 615.549 701.883 614.15 702.743C612.75 703.603 610.97 704.033 608.81 704.033C607.077 704.033 605.517 703.727 604.13 703.113C602.744 702.5 601.564 701.58 600.59 700.352C599.616 699.127 598.864 697.619 598.33 695.833C597.797 694.047 597.53 691.967 597.53 689.593C597.53 687.247 597.797 685.172 598.33 683.373C598.864 681.572 599.624 680.067 600.61 678.852C601.597 677.64 602.797 676.72 604.21 676.093C605.624 675.467 607.21 675.153 608.97 675.153C611.37 675.153 613.382 675.693 615.01 676.773C616.637 677.852 617.877 679.287 618.73 681.072L616.769 682.232C616.077 680.687 615.064 679.473 613.73 678.593C612.396 677.713 610.81 677.273 608.97 677.273C607.61 677.273 606.382 677.513 605.29 677.996C604.197 678.477 603.264 679.172 602.49 680.083C601.716 680.992 601.124 682.103 600.71 683.412C600.297 684.725 600.09 686.209 600.09 687.867V691.279C600.09 694.649 600.896 697.265 602.51 699.124C604.124 700.984 606.344 701.912 609.17 701.912C610.237 701.912 611.244 701.773 612.19 701.492C613.137 701.211 613.97 700.788 614.69 700.225C615.41 699.664 615.977 698.955 616.39 698.099C616.804 697.241 617.01 696.237 617.01 695.085V691.713H610.49V689.593H619.37V703.553H617.13V699.309Z" stroke="#959595" stroke-width="2.26667" /><path d="M856.653 690.433H841.333V703.553H838.934V675.632H841.333V688.313H856.653V675.632H859.054V703.553H856.653V690.433Z" stroke="#959595" stroke-width="2.26667" /></g><path d="M119.028 518.497L124.268 503.655H124.428L129.668 518.497H119.028ZM122.868 501.375L112.988 529.297H115.388L118.428 520.617H130.308L133.348 529.297H135.868L125.948 501.375H122.868Z" fill="black" /><mask id="mask2-qc" style="mask-type:luminance" maskUnits="userSpaceOnUse" x="0" y="14" width="1097" height="720"><path d="M-1.63457e-05 14H1096.94V733.079H-1.63457e-05V14Z" fill="white" /></mask><g mask="url(#mask2-qc)"><path d="M371.574 522.217C371.574 523.683 371.134 524.875 370.254 525.797C369.374 526.717 368.094 527.177 366.414 527.177H357.534V515.815H366.414C368.094 515.815 369.374 516.277 370.254 517.195C371.134 518.117 371.574 519.297 371.574 520.737V522.217ZM357.534 503.497H365.814C367.334 503.497 368.494 503.902 369.294 504.711C370.094 505.522 370.494 506.565 370.494 507.839V509.354C370.494 510.629 370.094 511.671 369.294 512.481C368.494 513.291 367.334 513.695 365.814 513.695H357.534V503.497ZM372.414 516.494C371.907 515.947 371.334 515.519 370.694 515.211C370.054 514.906 369.414 514.711 368.774 514.631V514.47C369.28 514.363 369.794 514.165 370.314 513.871C370.834 513.578 371.294 513.193 371.694 512.714C372.094 512.235 372.42 511.635 372.674 510.917C372.927 510.198 373.054 509.359 373.054 508.403C373.054 506.193 372.434 504.469 371.194 503.233C369.954 501.995 368.24 501.375 366.054 501.375H355.134V529.297H367.054C368.12 529.297 369.087 529.103 369.954 528.715C370.82 528.327 371.567 527.781 372.194 527.073C372.82 526.365 373.3 525.53 373.634 524.569C373.967 523.607 374.134 522.551 374.134 521.403C374.134 520.307 373.974 519.354 373.654 518.538C373.334 517.723 372.92 517.042 372.414 516.494Z" fill="black" /><path d="M607.853 529.777C610.118 529.777 612.053 529.223 613.653 528.117C615.253 527.01 616.466 525.497 617.293 523.577L615.333 522.415C614.718 524.017 613.786 525.29 612.533 526.237C611.278 527.183 609.718 527.655 607.853 527.655C605.24 527.655 603.2 526.747 601.733 524.927C600.266 523.109 599.533 520.473 599.533 517.022V513.851C599.533 510.374 600.266 507.698 601.733 505.826C603.2 503.953 605.24 503.017 607.853 503.017C609.613 503.017 611.113 503.463 612.353 504.357C613.593 505.249 614.52 506.457 615.133 507.975L617.093 506.815C616.24 504.975 615.046 503.53 613.513 502.475C611.98 501.422 610.093 500.897 607.853 500.897C604.385 500.897 601.706 502.137 599.813 504.617C597.92 507.095 596.973 510.695 596.973 515.415C596.973 520.163 597.92 523.743 599.813 526.155C601.706 528.57 604.385 529.777 607.853 529.777Z" fill="black" /><path d="M856.567 517.176C856.567 520.296 855.808 522.743 854.287 524.516C852.767 526.29 850.633 527.176 847.887 527.176H841.368V503.496H847.887C850.633 503.496 852.767 504.383 854.287 506.155C855.808 507.93 856.567 510.375 856.567 513.496V517.176ZM847.847 501.375H838.968V529.296H847.847C851.447 529.296 854.227 528.136 856.187 525.815C858.148 523.496 859.127 520.003 859.127 515.336C859.127 510.67 858.148 507.176 856.187 504.856C854.227 502.536 851.447 501.375 847.847 501.375Z" fill="black" /><path d="M950.063 605.243V597.798H948.697L946.703 601.584H946.639L944.644 597.798H943.215V605.243H944.367V599.547H944.42L945.007 600.752L946.639 603.728L948.271 600.752L948.857 599.547H948.911V605.243H950.063Z" fill="black" /><path d="M953.711 600.932C953.711 600.589 953.756 600.282 953.85 600.012C953.942 599.738 954.072 599.509 954.239 599.32C954.406 599.13 954.607 598.986 954.842 598.886C955.075 598.786 955.339 598.737 955.63 598.737C955.914 598.737 956.176 598.786 956.414 598.886C956.652 598.986 956.855 599.13 957.022 599.32C957.188 599.509 957.319 599.738 957.411 600.012C957.504 600.282 957.551 600.589 957.551 600.932V602.109C957.551 602.453 957.504 602.758 957.411 603.03C957.319 603.301 957.188 603.532 957.022 603.721C956.855 603.909 956.652 604.054 956.414 604.154C956.176 604.254 955.914 604.304 955.63 604.304C955.339 604.304 955.075 604.254 954.842 604.154C954.607 604.054 954.406 603.909 954.239 603.721C954.072 603.532 953.942 603.301 953.85 603.03C953.756 602.758 953.711 602.453 953.711 602.109V600.932ZM954.312 605.121C954.707 605.288 955.147 605.37 955.63 605.37C956.114 605.37 956.554 605.288 956.948 605.121C957.343 604.954 957.68 604.708 957.962 604.385C958.242 604.061 958.459 603.658 958.612 603.18C958.764 602.698 958.842 602.146 958.842 601.52C958.842 600.894 958.764 600.342 958.612 599.861C958.459 599.381 958.242 598.98 957.962 598.656C957.68 598.333 957.343 598.088 956.948 597.92C956.554 597.753 956.114 597.67 955.63 597.67C955.147 597.67 954.707 597.753 954.312 597.92C953.918 598.088 953.58 598.333 953.299 598.656C953.018 598.98 952.802 599.381 952.648 599.861C952.496 600.342 952.419 600.894 952.419 601.52C952.419 602.146 952.496 602.698 952.648 603.18C952.802 603.658 953.018 604.061 953.299 604.385C953.58 604.708 953.918 604.954 954.312 605.121Z" fill="black" /><path d="M962.404 604.176V598.864H963.833C964.388 598.864 964.836 599.038 965.177 599.387C965.519 599.735 965.689 600.247 965.689 600.923V602.118C965.689 602.794 965.519 603.306 965.177 603.652C964.836 604.002 964.388 604.176 963.833 604.176H962.404ZM966.121 604.31C966.395 604 966.607 603.612 966.756 603.147C966.905 602.682 966.98 602.139 966.98 601.52C966.98 600.902 966.905 600.359 966.756 599.894C966.607 599.427 966.395 599.039 966.121 598.731C965.848 598.422 965.517 598.188 965.129 598.032C964.741 597.875 964.311 597.798 963.833 597.798H961.199V605.243H963.833C964.311 605.243 964.741 605.164 965.129 605.008C965.517 604.852 965.848 604.619 966.121 604.31Z" fill="black" /><path d="M974.106 598.864V597.797H969.338V605.243H974.106V604.176H970.542V602.001H973.775V600.933H970.542V598.864H974.106Z" fill="black" /><path d="M974.552 687.766H955.888L955.562 687.761C950.024 687.588 945.686 683.11 945.686 677.566V623.55L945.674 623.46C945.624 623.246 945.438 623.1 945.219 623.1C944.962 623.1 944.752 623.308 944.752 623.566V677.569L944.758 677.905C944.939 683.958 949.827 688.698 955.886 688.698H974.568L974.659 688.686C974.871 688.637 975.019 688.452 975.019 688.233C975.019 687.974 974.81 687.766 974.552 687.766Z" fill="black" /><path d="M974.552 515.18H955.884L955.546 515.184C949.494 515.367 944.752 520.255 944.752 526.314V579.662L944.764 579.752C944.812 579.962 945.004 580.112 945.219 580.112C945.476 580.112 945.686 579.904 945.686 579.647V526.316L945.691 525.988C945.863 520.451 950.342 516.112 955.886 516.112H974.568L974.66 516.1C974.871 516.05 975.019 515.863 975.019 515.647C975.019 515.388 974.81 515.18 974.552 515.18Z" fill="black" /><path d="M944.698 586.235V588.347H942.735V589.296H944.698V591.408H945.743V589.296H947.706V588.347H945.743V586.235H944.698Z" fill="black" /><path d="M945.744 616.701V614.589H947.706V613.64H945.744V611.528H944.698V613.64H942.736V614.589H944.698V616.701H945.744Z" fill="black" /><path d="M1015.73 597.35V590.971H1017.95V589.904H1012.31V590.971H1014.53V597.35H1015.73Z" fill="black" /><path d="M1024.75 596.283H1021.18V594.107H1024.42V593.039H1021.18V590.971H1024.75V589.905H1019.98V597.35H1024.75V596.283Z" fill="black" /><path d="M1032.85 591.653V597.349H1034.01V589.904H1032.64L1030.65 593.69H1030.58L1028.59 589.904H1027.16V597.349H1028.31V591.653H1028.36L1028.95 592.858L1030.58 595.836L1032.21 592.858L1032.8 591.653H1032.85Z" fill="black" /><path d="M1037.9 593.317V590.97H1039.82C1040.13 590.97 1040.36 591.05 1040.53 591.209C1040.71 591.368 1040.79 591.594 1040.79 591.89V592.398C1040.79 592.693 1040.71 592.921 1040.53 593.08C1040.36 593.238 1040.13 593.317 1039.82 593.317H1037.9ZM1041.49 593.777C1041.87 593.37 1042.06 592.828 1042.06 592.144C1042.06 591.461 1041.87 590.917 1041.49 590.512C1041.12 590.108 1040.59 589.904 1039.89 589.904H1036.69V597.349H1037.9V594.385H1039.89C1040.59 594.385 1041.12 594.181 1041.49 593.777Z" fill="black" /><path d="M1045.72 595.827C1045.56 595.638 1045.43 595.409 1045.33 595.137C1045.24 594.865 1045.2 594.559 1045.2 594.215V593.038C1045.2 592.695 1045.24 592.389 1045.33 592.118C1045.43 591.846 1045.56 591.615 1045.72 591.426C1045.89 591.238 1046.09 591.093 1046.33 590.993C1046.56 590.893 1046.82 590.843 1047.12 590.843C1047.4 590.843 1047.66 590.893 1047.9 590.993C1048.14 591.093 1048.34 591.238 1048.51 591.426C1048.67 591.615 1048.81 591.846 1048.9 592.118C1048.99 592.389 1049.03 592.695 1049.03 593.038V594.215C1049.03 594.559 1048.99 594.865 1048.9 595.137C1048.81 595.409 1048.67 595.638 1048.51 595.827C1048.34 596.017 1048.14 596.161 1047.9 596.261C1047.66 596.361 1047.4 596.41 1047.12 596.41C1046.82 596.41 1046.56 596.361 1046.33 596.261C1046.09 596.161 1045.89 596.017 1045.72 595.827ZM1048.43 597.227C1048.83 597.061 1049.17 596.814 1049.45 596.491C1049.73 596.167 1049.94 595.765 1050.1 595.286C1050.25 594.805 1050.33 594.253 1050.33 593.627C1050.33 593.001 1050.25 592.449 1050.1 591.967C1049.94 591.487 1049.73 591.086 1049.45 590.762C1049.17 590.439 1048.83 590.194 1048.43 590.026C1048.04 589.859 1047.6 589.777 1047.12 589.777C1046.63 589.777 1046.19 589.859 1045.8 590.026C1045.4 590.194 1045.07 590.439 1044.79 590.762C1044.5 591.086 1044.29 591.487 1044.13 591.967C1043.98 592.449 1043.91 593.001 1043.91 593.627C1043.91 594.253 1043.98 594.805 1044.13 595.286C1044.29 595.765 1044.5 596.167 1044.79 596.491C1045.07 596.814 1045.4 597.061 1045.8 597.227C1046.19 597.394 1046.63 597.477 1047.12 597.477C1047.6 597.477 1048.04 597.394 1048.43 597.227Z" fill="black" /><path d="M1004.87 608.385H1001.92V605.641H1000.86V612.156H1001.92V609.318H1004.87V612.156H1005.92V605.641H1004.87V608.385Z" fill="black" /><path d="M1012.2 609.414C1012.2 609.714 1012.16 609.983 1012.07 610.219C1011.99 610.456 1011.88 610.659 1011.73 610.824C1011.59 610.99 1011.41 611.115 1011.2 611.204C1010.99 611.291 1010.76 611.334 1010.52 611.334C1010.26 611.334 1010.03 611.291 1009.83 611.204C1009.62 611.115 1009.44 610.99 1009.3 610.824C1009.15 610.659 1009.04 610.456 1008.96 610.219C1008.88 609.983 1008.84 609.714 1008.84 609.414V608.384C1008.84 608.083 1008.88 607.815 1008.96 607.578C1009.04 607.34 1009.15 607.139 1009.3 606.974C1009.44 606.808 1009.62 606.682 1009.83 606.594C1010.03 606.506 1010.26 606.463 1010.52 606.463C1010.76 606.463 1010.99 606.506 1011.2 606.594C1011.41 606.682 1011.59 606.808 1011.73 606.974C1011.88 607.139 1011.99 607.34 1012.07 607.578C1012.16 607.815 1012.2 608.083 1012.2 608.384V609.414ZM1012.56 606.392C1012.31 606.108 1012.01 605.895 1011.67 605.748C1011.32 605.603 1010.94 605.53 1010.52 605.53C1010.09 605.53 1009.71 605.603 1009.36 605.748C1009.02 605.895 1008.72 606.108 1008.48 606.392C1008.23 606.675 1008.04 607.027 1007.91 607.447C1007.77 607.867 1007.71 608.351 1007.71 608.898C1007.71 609.446 1007.77 609.93 1007.91 610.35C1008.04 610.771 1008.23 611.122 1008.48 611.404C1008.72 611.687 1009.02 611.902 1009.36 612.05C1009.71 612.195 1010.09 612.268 1010.52 612.268C1010.94 612.268 1011.32 612.195 1011.67 612.05C1012.01 611.902 1012.31 611.687 1012.56 611.404C1012.8 611.122 1012.99 610.771 1013.12 610.35C1013.26 609.93 1013.33 609.446 1013.33 608.898C1013.33 608.351 1013.26 607.867 1013.12 607.447C1012.99 607.027 1012.8 606.675 1012.56 606.392Z" fill="black" /><path d="M1016.16 605.641H1015.11V612.156H1018.81V611.223H1016.16V605.641Z" fill="black" /><path d="M1024.29 609.421C1024.29 610.012 1024.14 610.46 1023.84 610.765C1023.54 611.069 1023.15 611.223 1022.67 611.223H1021.42V606.575H1022.67C1023.15 606.575 1023.54 606.727 1023.84 607.032C1024.14 607.337 1024.29 607.784 1024.29 608.376V609.421ZM1024.67 606.457C1024.43 606.187 1024.14 605.984 1023.8 605.845C1023.46 605.709 1023.08 605.641 1022.67 605.641H1020.36V612.156H1022.67C1023.08 612.156 1023.46 612.087 1023.8 611.949C1024.14 611.813 1024.43 611.611 1024.67 611.339C1024.91 611.068 1025.09 610.729 1025.22 610.321C1025.36 609.915 1025.42 609.44 1025.42 608.897C1025.42 608.357 1025.36 607.883 1025.22 607.475C1025.09 607.067 1024.91 606.728 1024.67 606.457Z" fill="black" /><path d="M1027.85 610.859C1027.62 610.859 1027.45 610.919 1027.33 611.04C1027.22 611.163 1027.17 611.313 1027.17 611.493V611.633C1027.17 611.813 1027.22 611.964 1027.33 612.085C1027.45 612.207 1027.62 612.268 1027.85 612.268C1028.08 612.268 1028.25 612.207 1028.36 612.085C1028.47 611.964 1028.53 611.813 1028.53 611.633V611.493C1028.53 611.313 1028.47 611.163 1028.36 611.04C1028.25 610.919 1028.08 610.859 1027.85 610.859Z" fill="black" /><path d="M1027.85 607.191C1027.62 607.191 1027.45 607.251 1027.33 607.372C1027.22 607.495 1027.17 607.645 1027.17 607.825V607.965C1027.17 608.145 1027.22 608.296 1027.33 608.417C1027.45 608.539 1027.62 608.6 1027.85 608.6C1028.08 608.6 1028.25 608.539 1028.36 608.417C1028.47 608.296 1028.53 608.145 1028.53 607.965V607.825C1028.53 607.645 1028.47 607.495 1028.36 607.372C1028.25 607.251 1028.08 607.191 1027.85 607.191Z" fill="black" /><path d="M1032.65 606.575H1034.6V612.156H1035.65V606.575H1037.59V605.642H1032.65V606.575Z" fill="black" /><path d="M1042.88 609.661C1042.88 610.215 1042.78 610.633 1042.57 610.913C1042.35 611.194 1041.99 611.334 1041.48 611.334C1040.97 611.334 1040.61 611.194 1040.4 610.913C1040.19 610.633 1040.08 610.215 1040.08 609.661V605.641H1039.05V609.486C1039.05 609.966 1039.09 610.379 1039.18 610.727C1039.26 611.077 1039.41 611.363 1039.6 611.59C1039.79 611.818 1040.04 611.987 1040.35 612.099C1040.66 612.211 1041.03 612.267 1041.48 612.267C1041.93 612.267 1042.31 612.211 1042.62 612.099C1042.92 611.987 1043.18 611.818 1043.37 611.59C1043.56 611.363 1043.7 611.077 1043.79 610.727C1043.87 610.379 1043.92 609.966 1043.92 609.486V605.641H1042.88V609.661Z" fill="black" /><path d="M1050 610.624H1049.98L1049.26 609.244L1047.13 605.642H1045.95V612.155H1046.96V607.171H1046.99L1047.71 608.552L1049.84 612.155H1051.01V605.642H1050V610.624Z" fill="black" /><path d="M1053.08 612.156H1057.26V611.222H1054.14V609.318H1056.97V608.385H1054.14V606.574H1057.26V605.641H1053.08V612.156Z" fill="black" /><path d="M1061.82 608.638H1060.14V606.575H1061.82C1062.09 606.575 1062.3 606.644 1062.45 606.783C1062.6 606.923 1062.67 607.123 1062.67 607.383V607.83C1062.67 608.09 1062.6 608.288 1062.45 608.428C1062.3 608.567 1062.09 608.638 1061.82 608.638ZM1062.51 609.412C1062.93 609.287 1063.24 609.071 1063.46 608.763C1063.67 608.455 1063.78 608.067 1063.78 607.602C1063.78 606.999 1063.61 606.52 1063.28 606.168C1062.94 605.818 1062.48 605.642 1061.9 605.642H1059.09V612.156H1060.14V609.524H1061.44L1062.74 612.156H1063.92L1062.51 609.412Z" fill="black" /><path d="M113.226 703.553H129.546V701.433H115.626V690.433H128.866V688.313H115.626V677.753H129.546V675.633H113.226V703.553Z" fill="black" /><path d="M355.135 703.553H357.535V690.433H370.175V688.313H357.535V677.753H371.095V675.633H355.135V703.553Z" fill="black" /><path d="M610.49 691.713H617.011V695.085C617.011 696.238 616.803 697.241 616.391 698.098C615.976 698.956 615.41 699.664 614.69 700.226C613.97 700.789 613.136 701.21 612.19 701.492C611.243 701.773 610.238 701.912 609.171 701.912C606.344 701.912 604.124 700.984 602.511 699.125C600.896 697.265 600.09 694.649 600.09 691.278V687.866C600.09 686.209 600.296 684.725 600.71 683.412C601.124 682.102 601.716 680.992 602.49 680.082C603.263 679.173 604.196 678.477 605.291 677.996C606.383 677.514 607.611 677.273 608.97 677.273C610.81 677.273 612.396 677.713 613.731 678.593C615.064 679.473 616.076 680.686 616.77 682.233L618.731 681.073C617.876 679.288 616.636 677.852 615.011 676.773C613.383 675.693 611.37 675.153 608.97 675.153C607.21 675.153 605.624 675.466 604.21 676.093C602.796 676.72 601.596 677.64 600.611 678.852C599.624 680.068 598.863 681.573 598.331 683.373C597.796 685.173 597.53 687.246 597.53 689.593C597.53 691.966 597.796 694.046 598.331 695.833C598.863 697.62 599.616 699.128 600.59 700.352C601.564 701.58 602.743 702.5 604.13 703.113C605.518 703.726 607.076 704.033 608.81 704.033C610.97 704.033 612.75 703.602 614.15 702.742C615.55 701.882 616.503 700.74 617.011 699.309H617.13V703.553H619.37V689.593H610.49V691.713Z" fill="black" /><path d="M856.653 688.313H841.333V675.632H838.934V703.553H841.333V690.433H856.653V703.553H859.054V675.632H856.653V688.313Z" fill="black" /><path d="M114.752 86.6987H113.685V96.7H114.752V86.6987Z" fill="black" /><path d="M114.019 106.367C119.166 106.367 123.352 102.179 123.352 97.0319C123.352 92.8292 120.523 89.1252 116.471 88.0252L116.218 87.9559L116.219 89.0612L116.363 89.1026C119.851 90.1319 122.286 93.3932 122.286 97.0319C122.286 101.591 118.578 105.299 114.019 105.299C109.46 105.299 105.752 101.591 105.752 97.0319C105.752 93.3919 108.188 90.1306 111.676 89.1026L111.82 89.0612V87.9546L111.568 88.0239C107.516 89.1239 104.686 92.8279 104.686 97.0319C104.686 102.179 108.872 106.367 114.019 106.367Z" fill="black" /><path d="M94.6408 320.369L93.9155 322.961H93.8728L93.1581 320.369L91.9741 316.689H90.7261L93.1688 324.135H94.5661L97.0408 316.689H95.8248L94.6408 320.369Z" fill="black" /><path d="M103.59 321.001C103.59 321.345 103.543 321.65 103.451 321.922C103.359 322.194 103.229 322.423 103.062 322.613C102.895 322.802 102.693 322.946 102.454 323.046C102.215 323.146 101.954 323.195 101.67 323.195C101.378 323.195 101.115 323.146 100.881 323.046C100.646 322.946 100.445 322.802 100.278 322.613C100.111 322.423 99.9807 322.194 99.8887 321.922C99.7953 321.65 99.75 321.345 99.75 321.001V319.823C99.75 319.481 99.7953 319.174 99.8887 318.903C99.9807 318.631 100.111 318.401 100.278 318.211C100.445 318.023 100.646 317.878 100.881 317.778C101.115 317.678 101.378 317.629 101.67 317.629C101.954 317.629 102.215 317.678 102.454 317.778C102.693 317.878 102.895 318.023 103.062 318.211C103.229 318.401 103.359 318.631 103.451 318.903C103.543 319.174 103.59 319.481 103.59 319.823V321.001ZM104.001 317.547C103.719 317.225 103.382 316.979 102.987 316.811C102.593 316.645 102.153 316.562 101.67 316.562C101.186 316.562 100.747 316.645 100.353 316.811C99.958 316.979 99.6193 317.225 99.3393 317.547C99.058 317.871 98.8407 318.273 98.6887 318.753C98.5353 319.234 98.4593 319.786 98.4593 320.413C98.4593 321.038 98.5353 321.59 98.6887 322.071C98.8407 322.55 99.058 322.953 99.3393 323.277C99.6193 323.599 99.958 323.846 100.353 324.013C100.747 324.179 101.186 324.262 101.67 324.262C102.153 324.262 102.593 324.179 102.987 324.013C103.382 323.846 103.719 323.599 104.001 323.277C104.282 322.953 104.498 322.55 104.651 322.071C104.805 321.59 104.881 321.038 104.881 320.413C104.881 319.786 104.805 319.234 104.651 318.753C104.498 318.273 104.282 317.871 104.001 317.547Z" fill="black" /><path d="M108.443 316.689H107.237V324.135H111.472V323.068H108.443V316.689Z" fill="black" /><path d="M113.2 316.689V321.084C113.2 321.632 113.251 322.105 113.349 322.503C113.449 322.901 113.609 323.229 113.829 323.489C114.051 323.749 114.336 323.943 114.688 324.071C115.04 324.199 115.472 324.263 115.984 324.263C116.496 324.263 116.928 324.199 117.28 324.071C117.632 323.943 117.919 323.749 118.139 323.489C118.36 323.229 118.519 322.901 118.619 322.503C118.719 322.105 118.768 321.632 118.768 321.084V316.689H117.584V321.283C117.584 321.917 117.463 322.395 117.221 322.716C116.98 323.036 116.567 323.196 115.984 323.196C115.401 323.196 114.988 323.036 114.747 322.716C114.505 322.395 114.384 321.917 114.384 321.283V316.689H113.2Z" fill="black" /><path d="M121.414 316.689V324.135H122.566V318.439H122.619L123.206 319.644L124.838 322.62L126.47 319.644L127.056 318.439H127.11V324.135H128.262V316.689H126.896L124.902 320.476H124.838L122.843 316.689H121.414Z" fill="black" /><path d="M135.718 323.068H132.155V320.892H135.387V319.824H132.155V317.756H135.718V316.69H130.95V324.135H135.718V323.068Z" fill="black" /><path d="M1032.18 441.604L1026.27 434.43L1025.24 435.277L1032.18 443.702L1039.11 435.277L1038.08 434.43L1032.18 441.604Z" fill="black" /><path d="M1026.47 170.248L1032.38 163.073L1038.28 170.247L1039.31 169.399L1032.38 160.973L1025.44 169.399L1026.47 170.248Z" fill="black" /><path d="M933.671 96.6256C933.343 96.6256 933.047 96.5696 932.783 96.4576C932.519 96.3443 932.292 96.1816 932.104 95.9696C931.918 95.7563 931.771 95.4976 931.667 95.1923C931.563 94.8869 931.511 94.5416 931.511 94.1563V92.8309C931.511 92.4456 931.563 92.1003 931.667 91.7949C931.771 91.4896 931.918 91.2309 932.104 91.0176C932.292 90.8056 932.519 90.6429 932.783 90.5309C933.047 90.4176 933.343 90.3616 933.671 90.3616C933.991 90.3616 934.284 90.4176 934.552 90.5309C934.82 90.6429 935.048 90.8056 935.238 91.0176C935.424 91.2309 935.571 91.4896 935.675 91.7949C935.779 92.1003 935.831 92.4456 935.831 92.8309V94.1563C935.831 94.5416 935.779 94.8869 935.675 95.1923C935.571 95.4976 935.424 95.7563 935.238 95.9696C935.048 96.1816 934.82 96.3443 934.552 96.4576C934.284 96.5696 933.991 96.6256 933.671 96.6256ZM936.294 90.2709C935.976 89.9069 935.596 89.6309 935.152 89.4429C934.708 89.2563 934.215 89.1616 933.671 89.1616C933.127 89.1616 932.634 89.2563 932.19 89.4429C931.746 89.6309 931.366 89.9069 931.048 90.2709C930.732 90.6363 930.488 91.0883 930.316 91.6269C930.144 92.1669 930.059 92.7896 930.059 93.4936C930.059 94.1976 930.144 94.8203 930.316 95.3589C930.488 95.9003 930.732 96.3509 931.048 96.7149C931.366 97.0803 931.746 97.3549 932.19 97.5429C932.634 97.7323 933.127 97.8256 933.671 97.8256C934.178 97.8256 934.635 97.7363 935.054 97.5736L935.714 98.8829H936.918L935.954 97.0269C936.07 96.9283 936.191 96.8336 936.294 96.7149C936.608 96.3509 936.854 95.9003 937.026 95.3589C937.198 94.8203 937.283 94.1976 937.283 93.4936C937.283 92.7896 937.198 92.1669 937.026 91.6269C936.854 91.0883 936.608 90.6363 936.294 90.2709Z" fill="black" /><path d="M944.219 97.8256C944.795 97.8256 945.282 97.7536 945.678 97.6096C946.074 97.4656 946.395 97.2483 946.643 96.9563C946.891 96.663 947.071 96.2936 947.183 95.8456C947.295 95.3976 947.351 94.8656 947.351 94.2496V89.3056H946.019V94.4736C946.019 95.187 945.883 95.7243 945.611 96.0843C945.339 96.4456 944.875 96.6256 944.219 96.6256C943.563 96.6256 943.099 96.4456 942.827 96.0843C942.555 95.7243 942.419 95.187 942.419 94.4736V89.3056H941.087V94.2496C941.087 94.8656 941.143 95.3976 941.255 95.8456C941.367 96.2936 941.547 96.663 941.795 96.9563C942.043 97.2483 942.364 97.4656 942.76 97.6096C943.156 97.7536 943.643 97.8256 944.219 97.8256Z" fill="black" /><path d="M954.19 90.5533H954.25L955.45 94.2493H952.98L954.19 90.5533ZM952.656 95.4133H955.786L956.544 97.6813H957.958L955.104 89.3053H953.398L950.544 97.6813H951.924L952.656 95.4133Z" fill="black" /><path d="M962.771 90.5059H964.379C965.003 90.5059 965.507 90.7019 965.891 91.0939C966.275 91.4859 966.467 92.0619 966.467 92.8219V94.1659C966.467 94.9259 966.275 95.5019 965.891 95.8939C965.507 96.2859 965.003 96.4819 964.379 96.4819H962.771V90.5059ZM965.838 97.4179C966.272 97.2419 966.644 96.9792 966.954 96.6312C967.26 96.2832 967.499 95.8472 967.667 95.3232C967.835 94.7992 967.919 94.1899 967.919 93.4939C967.919 92.7979 967.835 92.1872 967.667 91.6632C967.499 91.1406 967.26 90.7032 966.954 90.3552C966.644 90.0072 966.272 89.7459 965.838 89.5699C965.402 89.3939 964.914 89.3059 964.379 89.3059H961.415V97.6819H964.379C964.914 97.6819 965.402 97.5939 965.838 97.4179Z" fill="black" /><path d="M976.145 96.2358C975.829 96.4958 975.418 96.6251 974.914 96.6251C974.267 96.6251 973.758 96.4051 973.391 95.9624C973.022 95.5211 972.839 94.9118 972.839 94.1318V92.8558C972.839 92.0758 973.022 91.4664 973.391 91.0238C973.758 90.5824 974.267 90.3611 974.914 90.3611C975.402 90.3611 975.797 90.4798 976.097 90.7158C976.395 90.9518 976.618 91.2691 976.762 91.6704L977.902 91.0451C977.622 90.4238 977.235 89.9544 976.745 89.6371C976.253 89.3198 975.642 89.1611 974.914 89.1611C974.37 89.1611 973.881 89.2558 973.445 89.4438C973.007 89.6318 972.638 89.9091 972.335 90.2771C972.03 90.6464 971.798 91.0971 971.638 91.6331C971.478 92.1704 971.398 92.7904 971.398 93.4931C971.398 94.9024 971.71 95.9758 972.335 96.7158C972.958 97.4558 973.818 97.8251 974.914 97.8251C975.642 97.8251 976.258 97.6558 976.762 97.3144C977.267 96.9744 977.658 96.5011 977.939 95.8944L976.846 95.2344C976.694 95.6424 976.459 95.9758 976.145 96.2358Z" fill="black" /><path d="M986.783 94.1563C986.783 94.5416 986.731 94.887 986.627 95.1923C986.523 95.4976 986.376 95.7563 986.189 95.9696C986 96.183 985.772 96.3443 985.504 96.4576C985.236 96.5696 984.943 96.6256 984.623 96.6256C984.295 96.6256 983.999 96.5696 983.735 96.4576C983.471 96.3443 983.244 96.183 983.056 95.9696C982.868 95.7563 982.723 95.4976 982.619 95.1923C982.515 94.887 982.463 94.5416 982.463 94.1563V92.831C982.463 92.4456 982.515 92.1003 982.619 91.795C982.723 91.4896 982.868 91.231 983.056 91.0176C983.244 90.8056 983.471 90.643 983.735 90.531C983.999 90.4176 984.295 90.3616 984.623 90.3616C984.943 90.3616 985.236 90.4176 985.504 90.531C985.772 90.643 986 90.8056 986.189 91.0176C986.376 91.231 986.523 91.4896 986.627 91.795C986.731 92.1003 986.783 92.4456 986.783 92.831V94.1563ZM987.245 90.271C986.928 89.907 986.548 89.631 986.104 89.443C985.66 89.2563 985.167 89.1616 984.623 89.1616C984.079 89.1616 983.585 89.2563 983.141 89.443C982.697 89.631 982.316 89.907 982 90.271C981.684 90.6363 981.44 91.0883 981.268 91.6283C981.096 92.167 981.011 92.7896 981.011 93.4936C981.011 94.1976 981.096 94.8203 981.268 95.359C981.44 95.9003 981.684 96.351 982 96.715C982.316 97.0803 982.697 97.355 983.141 97.5443C983.585 97.7323 984.079 97.8256 984.623 97.8256C985.167 97.8256 985.66 97.7323 986.104 97.5443C986.548 97.355 986.928 97.0803 987.245 96.715C987.56 96.351 987.805 95.9003 987.977 95.359C988.148 94.8203 988.235 94.1976 988.235 93.4936C988.235 92.7896 988.148 92.167 987.977 91.6283C987.805 91.0883 987.56 90.6363 987.245 90.271Z" fill="black" /><path d="M995.603 93.1576H993.443V90.5056H995.603C995.947 90.5056 996.215 90.595 996.407 90.775C996.599 90.9536 996.695 91.211 996.695 91.5456V92.119C996.695 92.4536 996.599 92.7096 996.407 92.8883C996.215 93.0683 995.947 93.1576 995.603 93.1576ZM997.708 93.3203C997.984 92.9243 998.123 92.4256 998.123 91.8256C998.123 91.0496 997.907 90.435 997.475 89.9843C997.043 89.5323 996.451 89.3056 995.699 89.3056H992.087V97.6816H993.443V94.2976H995.111L996.791 97.6816H998.302L996.491 94.1536C997.026 93.9936 997.432 93.715 997.708 93.3203Z" fill="black" /><path d="M1001.07 90.5059H1003.57V97.6819H1004.93V90.5059H1007.42V89.3059H1001.07V90.5059Z" fill="black" /><path d="M1016.27 96.4818H1012.26V94.0338H1015.89V92.8338H1012.26V90.5058H1016.27V89.3058H1010.9V97.6818H1016.27V96.4818Z" fill="black" /><path d="M1020.9 97.6816L1022.9 94.3456H1022.94L1024.97 97.6816H1026.56L1023.81 93.3856L1026.45 89.3056H1024.95L1023.02 92.4256H1023L1021.09 89.3056H1019.49L1022.11 93.3976L1019.4 97.6816H1020.9Z" fill="black" /><path d="M924.42 93.1992L920.655 93.0325C920.387 93.0325 920.159 93.2219 920.102 93.4912L919.394 97.4405C919.388 97.4765 919.356 97.5032 919.32 97.5032C919.283 97.5019 919.251 97.4752 919.246 97.4379L917.778 87.0885C917.739 86.8472 917.548 86.6712 917.268 86.6712H917.263C917.03 86.6899 916.843 86.8659 916.81 87.0952L915.927 93.1525C915.886 93.1379 915.84 93.1339 915.772 93.1272L913.222 93.1992C913.072 93.2032 912.951 93.3259 912.954 93.4752L912.956 93.7379C912.966 93.8805 913.084 93.9925 913.227 93.9939L915.439 94.0659L915.876 95.2525C915.936 95.4139 916.083 95.5232 916.359 95.5232C916.379 95.5232 916.398 95.5219 916.419 95.5205C916.582 95.4712 916.7 95.3272 916.723 95.1552L917.218 91.2165C917.223 91.1779 917.255 91.1499 917.292 91.1499C917.331 91.1499 917.363 91.1779 917.368 91.2152L918.671 101.29C918.71 101.569 918.94 101.771 919.218 101.771L919.284 101.767C919.52 101.738 919.711 101.561 919.759 101.327L919.786 101.191C919.915 100.562 920.115 99.5059 920.367 98.1192L921.143 94.1432L924.422 93.9939C924.567 93.9872 924.682 93.8672 924.682 93.7205V93.4725C924.682 93.3245 924.567 93.2045 924.42 93.1992Z" fill="black" /></g><rect x="93" y="206" width="42" height="40" fill="white" /></g><defs><clipPath id="clip0-qc"><rect width="1096.94" height="719.079" fill="white" transform="translate(0 14)" /></clipPath><clipPath id="clip1-qc"><rect width="1096.95" height="186.145" fill="white" transform="translate(0 1059)" /></clipPath><clipPath id="clip2-qc"><rect width="1097" height="716" fill="white" transform="translate(0 1490)" /></clipPath></defs></svg>
